{"glyphs":{"0":{"ha":778,"x_min":0,"x_max":694,"o":"m 0 813 l 694 813 l 694 0 l 0 0 l 0 813 m 111 111 l 583 111 l 583 701 l 111 701 l 111 111 z "},"1":{"ha":778,"x_min":0,"x_max":694,"o":"m 0 813 l 403 813 l 403 111 l 694 111 l 694 0 l 0 0 l 0 111 l 292 111 l 292 701 l 0 701 l 0 813 z "},"2":{"ha":778,"x_min":0,"x_max":694,"o":"m 0 561 l 583 561 l 583 701 l 0 701 l 0 813 l 694 813 l 694 450 l 111 450 l 111 111 l 694 111 l 694 0 l 0 0 l 0 561 z "},"3":{"ha":778,"x_min":0,"x_max":694,"o":"m 0 813 l 694 813 l 694 0 l 0 0 l 0 111 l 583 111 l 583 450 l 0 450 l 0 561 l 583 561 l 583 701 l 0 701 l 0 813 z "},"4":{"ha":778,"x_min":0,"x_max":694,"o":"m 0 813 l 111 813 l 111 561 l 583 561 l 583 813 l 694 813 l 694 0 l 583 0 l 583 450 l 0 450 l 0 813 z "},"5":{"ha":778,"x_min":0,"x_max":694,"o":"m 694 701 l 111 701 l 111 561 l 694 561 l 694 0 l 0 0 l 0 111 l 583 111 l 583 450 l 0 450 l 0 813 l 694 813 l 694 701 z "},"6":{"ha":778,"x_min":0,"x_max":694,"o":"m 694 0 l 0 0 l 0 813 l 111 813 l 111 561 l 694 561 l 694 0 m 111 111 l 583 111 l 583 450 l 111 450 l 111 111 z "},"7":{"ha":778,"x_min":0,"x_max":694,"o":"m 0 813 l 694 813 l 694 0 l 583 0 l 583 701 l 0 701 l 0 813 z "},"8":{"ha":778,"x_min":0,"x_max":694,"o":"m 0 813 l 694 813 l 694 0 l 0 0 l 0 813 m 111 111 l 583 111 l 583 450 l 111 450 l 111 111 m 111 561 l 583 561 l 583 701 l 111 701 l 111 561 z "},"9":{"ha":778,"x_min":0,"x_max":694,"o":"m 0 813 l 694 813 l 694 0 l 583 0 l 583 450 l 0 450 l 0 813 m 111 561 l 583 561 l 583 701 l 111 701 l 111 561 z "},"n":{"ha":778,"x_min":0,"x_max":694,"o":"m 583 450 l 111 450 l 111 0 l 0 0 l 0 561 l 694 561 l 694 0 l 583 0 l 583 450 z "},"p":{"ha":778,"x_min":0,"x_max":694,"o":"m 0 561 l 694 561 l 694 0 l 111 0 l 111 -250 l 0 -250 l 0 561 m 111 111 l 583 111 l 583 450 l 111 450 l 111 111 z "},"r":{"ha":778,"x_min":0,"x_max":694,"o":"m 0 561 l 694 561 l 694 450 l 111 450 l 111 0 l 0 0 l 0 561 z "},"s":{"ha":778,"x_min":0,"x_max":694,"o":"m 0 561 l 694 561 l 694 450 l 111 450 l 111 340 l 694 340 l 694 0 l 0 0 l 0 111 l 583 111 l 583 229 l 0 229 l 0 561 z "},"t":{"ha":778,"x_min":0,"x_max":694,"o":"m 0 561 l 292 561 l 292 813 l 403 813 l 403 561 l 694 561 l 694 450 l 403 450 l 403 111 l 694 111 l 694 0 l 292 0 l 292 450 l 0 450 l 0 561 z "},"u":{"ha":778,"x_min":0,"x_max":694,"o":"m 0 563 l 111 563 l 111 111 l 583 111 l 583 563 l 694 563 l 694 0 l 0 0 l 0 563 z "},"v":{"ha":778,"x_min":0,"x_max":694,"o":"m 111 0 l 0 0 l 0 561 l 111 561 l 111 131 l 583 483 l 583 561 l 694 561 l 694 440 l 111 0 z "},"w":{"ha":778,"x_min":0,"x_max":694,"o":"m 0 563 l 111 563 l 111 111 l 292 111 l 292 563 l 403 563 l 403 111 l 583 111 l 583 563 l 694 563 l 694 0 l 0 0 l 0 563 z "},"z":{"ha":778,"x_min":0,"x_max":694,"o":"m 694 0 l 0 0 l 0 111 l 508 450 l 0 450 l 0 561 l 694 561 l 694 450 l 188 111 l 694 111 l 694 0 z "},"b":{"ha":778,"x_min":0,"x_max":694,"o":"m 0 811 l 111 811 l 111 561 l 694 561 l 694 0 l 0 0 l 0 811 m 111 111 l 583 111 l 583 450 l 111 450 l 111 111 z "},"y":{"ha":778,"x_min":0,"x_max":694,"o":"m 0 -139 l 583 -139 l 583 0 l 0 0 l 0 561 l 111 561 l 111 111 l 583 111 l 583 561 l 694 561 l 694 -250 l 0 -250 l 0 -139 z "},"x":{"ha":778,"x_min":0,"x_max":694,"o":"m 111 0 l 0 0 l 0 83 l 265 279 l 0 478 l 0 561 l 111 561 l 111 521 l 347 346 l 583 521 l 583 561 l 694 561 l 694 478 l 428 279 l 694 83 l 694 0 l 583 0 l 583 38 l 347 213 l 111 38 l 111 0 z "},"B":{"ha":778,"x_min":0,"x_max":694,"o":"m 0 813 l 490 813 l 694 667 l 694 0 l 0 0 l 0 813 m 111 111 l 583 111 l 583 450 l 111 450 l 111 111 m 111 561 l 583 561 l 583 621 l 475 701 l 111 701 l 111 561 z "},"D":{"ha":778,"x_min":0,"x_max":694,"o":"m 0 813 l 490 813 l 694 667 l 694 0 l 0 0 l 0 813 m 111 111 l 583 111 l 583 621 l 475 701 l 111 701 l 111 111 z "},"A":{"ha":778,"x_min":0,"x_max":694,"o":"m 583 450 l 111 450 l 111 0 l 0 0 l 0 813 l 694 813 l 694 0 l 583 0 l 583 450 m 111 561 l 583 561 l 583 701 l 111 701 l 111 561 z "},"F":{"ha":778,"x_min":0,"x_max":694,"o":"m 0 813 l 694 813 l 694 701 l 111 701 l 111 561 l 694 561 l 694 450 l 111 450 l 111 0 l 0 0 l 0 813 z "},"G":{"ha":778,"x_min":0,"x_max":694,"o":"m 347 561 l 694 561 l 694 0 l 0 0 l 0 813 l 694 813 l 694 701 l 111 701 l 111 111 l 583 111 l 583 450 l 347 450 l 347 561 z "},"C":{"ha":778,"x_min":0,"x_max":694,"o":"m 0 813 l 694 813 l 694 701 l 111 701 l 111 111 l 694 111 l 694 0 l 0 0 l 0 813 z "},"H":{"ha":778,"x_min":0,"x_max":694,"o":"m 583 450 l 111 450 l 111 0 l 0 0 l 0 813 l 111 813 l 111 561 l 583 561 l 583 813 l 694 813 l 694 0 l 583 0 l 583 450 z "},"I":{"ha":778,"x_min":0,"x_max":694,"o":"m 0 813 l 694 813 l 694 701 l 403 701 l 403 111 l 694 111 l 694 0 l 0 0 l 0 111 l 292 111 l 292 701 l 0 701 l 0 813 z "},"J":{"ha":778,"x_min":0,"x_max":694,"o":"m 0 111 l 583 111 l 583 813 l 694 813 l 694 0 l 0 0 l 0 111 z "},"K":{"ha":778,"x_min":0,"x_max":694,"o":"m 0 813 l 111 813 l 111 561 l 472 561 l 472 813 l 583 813 l 583 561 l 694 561 l 694 0 l 583 0 l 583 450 l 111 450 l 111 0 l 0 0 l 0 813 z "},"L":{"ha":778,"x_min":0,"x_max":694,"o":"m 0 811 l 111 811 l 111 111 l 694 111 l 694 0 l 0 0 l 0 811 z "},"M":{"ha":778,"x_min":0,"x_max":694,"o":"m 292 701 l 111 701 l 111 0 l 0 0 l 0 813 l 694 813 l 694 0 l 583 0 l 583 701 l 403 701 l 403 0 l 292 0 l 292 701 z "},"N":{"ha":778,"x_min":0,"x_max":694,"o":"m 583 701 l 111 701 l 111 0 l 0 0 l 0 813 l 694 813 l 694 0 l 583 0 l 583 701 z "},"O":{"ha":778,"x_min":0,"x_max":694,"o":"m 0 813 l 694 813 l 694 0 l 0 0 l 0 813 m 111 111 l 583 111 l 583 701 l 111 701 l 111 111 z "},"P":{"ha":778,"x_min":0,"x_max":694,"o":"m 0 813 l 694 813 l 694 450 l 111 450 l 111 0 l 0 0 l 0 813 m 111 561 l 583 561 l 583 701 l 111 701 l 111 561 z "},"E":{"ha":778,"x_min":0,"x_max":694,"o":"m 0 813 l 694 813 l 694 701 l 111 701 l 111 561 l 694 561 l 694 450 l 111 450 l 111 111 l 694 111 l 694 0 l 0 0 l 0 813 z "},"Q":{"ha":778,"x_min":0,"x_max":694,"o":"m 292 0 l 0 0 l 0 813 l 694 813 l 694 0 l 403 0 l 403 -69 l 292 -69 l 292 0 m 403 111 l 583 111 l 583 701 l 111 701 l 111 111 l 292 111 l 292 176 l 403 176 l 403 111 z "},"R":{"ha":778,"x_min":0,"x_max":694,"o":"m 472 450 l 111 450 l 111 0 l 0 0 l 0 813 l 694 813 l 694 450 l 583 450 l 583 0 l 472 0 l 472 450 m 111 561 l 583 561 l 583 701 l 111 701 l 111 561 z "},"S":{"ha":778,"x_min":0,"x_max":694,"o":"m 0 813 l 694 813 l 694 701 l 111 701 l 111 561 l 694 561 l 694 0 l 0 0 l 0 111 l 583 111 l 583 450 l 0 450 l 0 813 z "},"T":{"ha":778,"x_min":0,"x_max":694,"o":"m 0 813 l 694 813 l 694 701 l 403 701 l 403 0 l 292 0 l 292 701 l 0 701 l 0 813 z "},"U":{"ha":778,"x_min":0,"x_max":694,"o":"m 0 813 l 111 813 l 111 111 l 583 111 l 583 813 l 694 813 l 694 0 l 0 0 l 0 813 z "},"V":{"ha":778,"x_min":0,"x_max":694,"o":"m 111 0 l 0 0 l 0 813 l 111 813 l 111 133 l 583 492 l 583 813 l 694 813 l 694 440 l 111 0 z "},"W":{"ha":778,"x_min":0,"x_max":694,"o":"m 0 813 l 111 813 l 111 111 l 292 111 l 292 813 l 403 813 l 403 111 l 583 111 l 583 813 l 694 813 l 694 0 l 0 0 l 0 813 z "},"X":{"ha":778,"x_min":0,"x_max":694,"o":"m 111 0 l 0 0 l 0 333 l 268 529 l 0 728 l 0 813 l 111 813 l 111 771 l 347 596 l 583 771 l 583 813 l 694 813 l 694 728 l 432 529 l 694 333 l 694 0 l 583 0 l 583 288 l 347 463 l 111 288 l 111 0 z "},"Y":{"ha":778,"x_min":0,"x_max":694,"o":"m 0 813 l 111 813 l 111 561 l 583 561 l 583 813 l 694 813 l 694 450 l 403 450 l 403 0 l 292 0 l 292 450 l 0 450 l 0 813 z "},"Z":{"ha":778,"x_min":0,"x_max":694,"o":"m 0 269 l 517 701 l 0 701 l 0 813 l 694 813 l 694 701 l 111 219 l 111 111 l 694 111 l 694 0 l 0 0 l 0 269 z "},"e":{"ha":778,"x_min":0,"x_max":694,"o":"m 694 0 l 0 0 l 0 561 l 694 561 l 694 229 l 111 229 l 111 111 l 694 111 l 694 0 m 111 340 l 583 340 l 583 450 l 111 450 l 111 340 z "},"$":{"ha":778,"x_min":0,"x_max":694,"o":"m 0 757 l 292 757 l 292 814 l 403 814 l 403 757 l 694 757 l 694 660 l 403 660 l 403 492 l 694 492 l 694 56 l 403 56 l 403 0 l 292 0 l 292 56 l 0 56 l 0 167 l 292 167 l 292 394 l 0 394 l 0 757 m 403 167 l 597 167 l 597 394 l 403 394 l 403 167 m 111 492 l 292 492 l 292 660 l 111 660 l 111 492 z "},"[":{"ha":778,"x_min":181,"x_max":583,"o":"m 181 813 l 583 813 l 583 701 l 292 701 l 292 111 l 583 111 l 583 0 l 181 0 l 181 813 z "},"+":{"ha":778,"x_min":28,"x_max":667,"o":"m 28 431 l 292 431 l 292 694 l 403 694 l 403 431 l 667 431 l 667 319 l 403 319 l 403 56 l 292 56 l 292 319 l 28 319 l 28 431 z "},"@":{"ha":778,"x_min":0,"x_max":694,"o":"m 181 632 l 514 632 l 514 278 l 583 278 l 583 701 l 111 701 l 111 111 l 694 111 l 694 0 l 0 0 l 0 813 l 694 813 l 694 167 l 181 167 l 181 479 l 403 479 l 403 521 l 181 521 l 181 632 m 292 278 l 403 278 l 403 368 l 292 368 l 292 278 z "},"(":{"ha":778,"x_min":181,"x_max":556,"o":"m 556 111 l 556 0 l 399 0 l 181 174 l 181 642 l 182 642 l 399 814 l 556 814 l 556 703 l 440 703 l 292 581 l 292 232 l 440 111 l 556 111 z "},")":{"ha":778,"x_min":181,"x_max":556,"o":"m 181 111 l 181 0 l 338 0 l 556 174 l 556 642 l 554 642 l 338 814 l 181 814 l 181 703 l 296 703 l 445 581 l 445 232 l 296 111 l 181 111 z "},".":{"ha":778,"x_min":282,"x_max":414,"o":"m 282 146 l 414 146 l 414 0 l 282 0 l 282 146 z "},"!":{"ha":778,"x_min":282,"x_max":414,"o":"m 292 811 l 403 811 l 403 250 l 292 250 l 292 811 m 282 0 l 414 0 l 414 146 l 282 146 l 282 0 z "},"_":{"ha":778,"x_min":0,"x_max":694,"o":"m 0 0 l 694 0 l 694 -111 l 0 -111 l 0 0 z "},"?":{"ha":778,"x_min":0,"x_max":694,"o":"m 292 561 l 583 561 l 583 701 l 111 701 l 111 653 l 0 653 l 0 813 l 694 813 l 694 450 l 403 450 l 403 249 l 292 249 l 292 561 m 282 144 l 414 144 l 414 -1 l 282 -1 l 282 144 z "},":":{"ha":778,"x_min":282,"x_max":414,"o":"m 282 563 l 414 563 l 414 417 l 282 417 l 282 563 m 282 146 l 414 146 l 414 0 l 282 0 l 282 146 z "},";":{"ha":778,"x_min":281,"x_max":414,"o":"m 281 146 l 414 146 l 414 -101 l 344 -101 l 344 0 l 281 0 l 281 146 m 282 561 l 414 561 l 414 415 l 282 415 l 282 561 z "},"^":{"ha":778,"x_min":71,"x_max":625,"o":"m 528 594 l 375 701 l 321 701 l 168 594 l 168 561 l 71 561 l 71 668 l 275 813 l 421 813 l 625 668 l 625 561 l 528 561 l 528 594 z "},",":{"ha":778,"x_min":281,"x_max":414,"o":"m 281 146 l 414 146 l 414 -101 l 344 -101 l 344 0 l 281 0 l 281 146 z "},"&":{"ha":778,"x_min":0,"x_max":694,"o":"m 0 561 l 347 561 l 347 813 l 694 813 l 694 450 l 458 450 l 458 111 l 694 111 l 694 0 l 458 0 l 458 -111 l 347 -111 l 347 0 l 0 0 l 0 561 m 111 111 l 347 111 l 347 450 l 111 450 l 111 111 m 458 561 l 583 561 l 583 715 l 458 715 l 458 561 z "},"'":{"ha":778,"x_min":296,"x_max":401,"o":"m 296 813 l 400 813 l 400 811 l 401 811 l 401 565 l 346 565 l 346 667 l 296 667 l 296 813 z "},"*":{"ha":778,"x_min":56,"x_max":639,"o":"m 529 607 l 419 417 l 639 417 l 639 333 l 419 333 l 529 143 l 457 101 l 347 292 l 238 101 l 165 143 l 275 333 l 56 333 l 56 417 l 275 417 l 165 607 l 238 649 l 347 458 l 457 649 l 529 607 z "},"\\":{"ha":778,"x_min":96,"x_max":599,"o":"m 96 663 l 499 46 l 599 101 l 196 718 l 96 663 z "},"\"":{"ha":778,"x_min":226,"x_max":471,"o":"m 365 813 l 469 813 l 469 811 l 471 811 l 471 565 l 415 565 l 415 667 l 365 667 l 365 813 m 226 813 l 331 813 l 331 811 l 332 811 l 332 565 l 276 565 l 276 667 l 226 667 l 226 813 z "},"#":{"ha":778,"x_min":28,"x_max":667,"o":"m 403 250 l 292 250 l 292 0 l 208 0 l 208 250 l 28 250 l 28 333 l 208 333 l 208 478 l 28 478 l 28 561 l 208 561 l 208 813 l 292 813 l 292 561 l 403 561 l 403 813 l 486 813 l 486 561 l 667 561 l 667 478 l 486 478 l 486 333 l 667 333 l 667 250 l 486 250 l 486 0 l 403 0 l 403 250 m 292 333 l 403 333 l 403 478 l 292 478 l 292 333 z "},"=":{"ha":778,"x_min":0,"x_max":694,"o":"m 0 306 l 694 306 l 694 194 l 0 194 l 0 306 m 0 500 l 694 500 l 694 389 l 0 389 l 0 500 z "},"-":{"ha":778,"x_min":28,"x_max":667,"o":"m 28 431 l 667 431 l 667 319 l 28 319 l 28 431 z "},"|":{"ha":778,"x_min":292,"x_max":403,"o":"m 292 896 l 403 896 l 403 -83 l 292 -83 l 292 896 z "},"{":{"ha":778,"x_min":124,"x_max":569,"o":"m 124 450 l 194 450 l 194 642 l 196 642 l 413 814 l 569 814 l 569 703 l 454 703 l 306 581 l 306 232 l 454 111 l 569 111 l 569 0 l 413 0 l 194 174 l 194 351 l 124 351 l 124 450 z "},"~":{"ha":778,"x_min":0,"x_max":694,"o":"m 0 524 l 403 524 l 403 340 l 694 340 l 694 229 l 292 229 l 292 413 l 0 413 l 0 524 z "},"€":{"ha":778,"x_min":0,"x_max":694,"o":"m 0 560 l 97 560 l 97 813 l 694 813 l 694 701 l 208 701 l 208 560 l 583 560 l 583 451 l 208 451 l 208 340 l 583 340 l 583 229 l 208 229 l 208 111 l 694 111 l 694 0 l 97 0 l 97 229 l 0 229 l 0 340 l 97 340 l 97 451 l 0 451 l 0 560 z "},"%":{"ha":778,"x_min":0,"x_max":694,"o":"m 0 813 l 250 813 l 250 478 l 0 478 l 0 813 m 444 335 l 694 335 l 694 0 l 444 0 l 444 335 m 292 813 l 403 813 l 403 0 l 292 0 l 292 813 m 97 589 l 153 589 l 153 701 l 97 701 l 97 589 m 542 111 l 597 111 l 597 224 l 542 224 l 542 111 z "},"`":{"ha":778,"x_min":26,"x_max":403,"o":"m 292 621 l 26 813 l 199 813 l 403 667 l 403 603 l 292 603 l 292 621 z "},"<":{"ha":778,"x_min":126,"x_max":531,"o":"m 458 629 l 531 549 l 299 375 l 531 201 l 458 121 l 126 375 l 458 629 z "},">":{"ha":778,"x_min":111,"x_max":529,"o":"m 529 375 l 197 121 l 111 188 l 357 375 l 111 563 l 197 629 l 529 375 z "},"¥":{"ha":778,"x_min":0,"x_max":694,"o":"m 0 813 l 111 813 l 111 561 l 583 561 l 583 813 l 694 813 l 694 436 l 403 436 l 403 381 l 694 381 l 694 256 l 403 256 l 403 200 l 694 200 l 694 75 l 403 75 l 403 0 l 292 0 l 292 75 l 0 75 l 0 200 l 292 200 l 292 256 l 0 256 l 0 381 l 292 381 l 292 436 l 0 436 l 0 813 z "},"£":{"ha":778,"x_min":0,"x_max":694,"o":"m 250 811 l 250 403 l 417 403 l 417 292 l 250 292 l 250 111 l 694 111 l 694 0 l 0 0 l 0 111 l 139 111 l 139 292 l 0 292 l 0 403 l 139 403 l 139 547 l 0 547 l 0 811 l 250 811 m 111 658 l 139 658 l 139 700 l 111 700 l 111 658 z "},"ô":{"ha":778,"x_min":0,"x_max":694,"o":"m 0 561 l 694 561 l 694 0 l 0 0 l 0 561 m 111 111 l 583 111 l 583 450 l 111 450 l 111 111 m 528 683 l 375 790 l 321 790 l 168 683 l 168 636 l 71 636 l 71 743 l 275 889 l 421 889 l 625 743 l 625 636 l 528 636 l 528 683 z "},"õ":{"ha":778,"x_min":0,"x_max":694,"o":"m 0 561 l 694 561 l 694 0 l 0 0 l 0 561 m 111 111 l 583 111 l 583 450 l 111 450 l 111 111 m 0 878 l 403 878 l 403 747 l 694 747 l 694 636 l 292 636 l 292 767 l 0 767 l 0 878 z "},"¦":{"ha":778,"x_min":292,"x_max":403,"o":"m 292 867 l 403 867 l 403 458 l 292 458 l 292 867 m 292 353 l 403 353 l 403 -56 l 292 -56 l 292 353 z "},"±":{"ha":778,"x_min":28,"x_max":667,"o":"m 28 444 l 292 444 l 292 694 l 403 694 l 403 444 l 667 444 l 667 333 l 403 333 l 403 111 l 667 111 l 667 0 l 28 0 l 28 111 l 292 111 l 292 333 l 28 333 l 28 444 z "},"”":{"ha":778,"x_min":199,"x_max":499,"o":"m 365 813 l 499 813 l 499 565 l 429 565 l 429 667 l 365 667 l 365 813 m 199 813 l 332 813 l 332 565 l 263 565 l 263 667 l 199 667 l 199 813 z "},"“":{"ha":778,"x_min":199,"x_max":499,"o":"m 332 -1 l 200 -1 l 200 0 l 199 0 l 199 246 l 268 246 l 268 144 l 332 144 l 332 -1 m 499 -1 l 367 -1 l 367 0 l 365 0 l 365 246 l 435 246 l 435 144 l 499 144 l 499 -1 z "},"ó":{"ha":778,"x_min":0,"x_max":694,"o":"m 0 561 l 694 561 l 694 0 l 0 0 l 0 561 m 111 111 l 583 111 l 583 450 l 111 450 l 111 111 m 403 636 l 292 636 l 292 700 l 496 846 l 668 846 l 403 654 l 403 636 z "},"ò":{"ha":778,"x_min":0,"x_max":694,"o":"m 0 561 l 694 561 l 694 0 l 0 0 l 0 561 m 111 111 l 583 111 l 583 450 l 111 450 l 111 111 m 292 654 l 26 846 l 199 846 l 403 700 l 403 636 l 292 636 l 292 654 z "},"˜":{"ha":778,"x_min":0,"x_max":694,"o":"m 0 815 l 403 815 l 403 685 l 694 685 l 694 574 l 292 574 l 292 704 l 0 704 l 0 815 z "},"è":{"ha":778,"x_min":0,"x_max":694,"o":"m 694 0 l 0 0 l 0 561 l 694 561 l 694 229 l 111 229 l 111 111 l 694 111 l 694 0 m 111 340 l 583 340 l 583 450 l 111 450 l 111 340 m 292 656 l 26 847 l 199 847 l 403 701 l 403 638 l 292 638 l 292 656 z "},"é":{"ha":778,"x_min":0,"x_max":694,"o":"m 694 0 l 0 0 l 0 561 l 694 561 l 694 229 l 111 229 l 111 111 l 694 111 l 694 0 m 111 340 l 583 340 l 583 450 l 111 450 l 111 340 m 419 638 l 308 638 l 308 701 l 513 847 l 685 847 l 419 656 l 419 638 z "},"ê":{"ha":778,"x_min":0,"x_max":694,"o":"m 694 0 l 0 0 l 0 561 l 694 561 l 694 229 l 111 229 l 111 111 l 694 111 l 694 0 m 111 340 l 583 340 l 583 450 l 111 450 l 111 340 m 528 650 l 375 757 l 321 757 l 168 650 l 168 603 l 71 603 l 71 710 l 275 856 l 421 856 l 625 710 l 625 603 l 528 603 l 528 650 z "},"ö":{"ha":778,"x_min":0,"x_max":694,"o":"m 0 561 l 694 561 l 694 0 l 0 0 l 0 561 m 111 111 l 583 111 l 583 450 l 111 450 l 111 111 m 88 813 l 219 813 l 219 667 l 88 667 l 88 813 m 476 813 l 608 813 l 608 667 l 476 667 l 476 813 z "},"ë":{"ha":778,"x_min":0,"x_max":694,"o":"m 694 0 l 0 0 l 0 561 l 694 561 l 694 229 l 111 229 l 111 111 l 694 111 l 694 0 m 111 340 l 583 340 l 583 450 l 111 450 l 111 340 m 88 813 l 219 813 l 219 667 l 88 667 l 88 813 m 476 813 l 608 813 l 608 667 l 476 667 l 476 813 z "},"ì":{"ha":778,"x_min":0,"x_max":694,"o":"m 111 563 l 403 563 l 403 111 l 694 111 l 694 0 l 0 0 l 0 111 l 292 111 l 292 450 l 111 450 l 111 563 m 292 656 l 26 847 l 199 847 l 403 701 l 403 638 l 292 638 l 292 656 z "},"î":{"ha":778,"x_min":0,"x_max":694,"o":"m 111 563 l 403 563 l 403 111 l 694 111 l 694 0 l 0 0 l 0 111 l 292 111 l 292 450 l 111 450 l 111 563 m 528 650 l 375 757 l 321 757 l 168 650 l 168 603 l 71 603 l 71 710 l 275 856 l 421 856 l 625 710 l 625 603 l 528 603 l 528 650 z "},"ï":{"ha":778,"x_min":0,"x_max":694,"o":"m 111 563 l 403 563 l 403 111 l 694 111 l 694 0 l 0 0 l 0 111 l 292 111 l 292 450 l 111 450 l 111 563 m 88 811 l 219 811 l 219 665 l 88 665 l 88 811 m 476 811 l 608 811 l 608 665 l 476 665 l 476 811 z "},"ù":{"ha":778,"x_min":0,"x_max":694,"o":"m 0 563 l 111 563 l 111 111 l 583 111 l 583 563 l 694 563 l 694 0 l 0 0 l 0 563 m 292 654 l 26 846 l 199 846 l 403 700 l 403 636 l 292 636 l 292 654 z "},"ú":{"ha":778,"x_min":0,"x_max":694,"o":"m 0 563 l 111 563 l 111 111 l 583 111 l 583 563 l 694 563 l 694 0 l 0 0 l 0 563 m 403 635 l 292 635 l 292 699 l 496 844 l 668 844 l 403 653 l 403 635 z "},"û":{"ha":778,"x_min":0,"x_max":694,"o":"m 0 563 l 111 563 l 111 111 l 583 111 l 583 563 l 694 563 l 694 0 l 0 0 l 0 563 m 528 650 l 375 757 l 321 757 l 168 650 l 168 603 l 71 603 l 71 710 l 275 856 l 421 856 l 625 710 l 625 603 l 528 603 l 528 650 z "},"ü":{"ha":778,"x_min":0,"x_max":694,"o":"m 0 563 l 111 563 l 111 111 l 583 111 l 583 563 l 694 563 l 694 0 l 0 0 l 0 563 m 88 813 l 219 813 l 219 667 l 88 667 l 88 813 m 476 813 l 608 813 l 608 667 l 476 667 l 476 813 z "},"à":{"ha":778,"x_min":0,"x_max":694,"o":"m 0 340 l 583 340 l 583 450 l 0 450 l 0 561 l 694 561 l 694 0 l 0 0 l 0 340 m 111 111 l 583 111 l 583 229 l 111 229 l 111 111 m 292 654 l 26 846 l 199 846 l 403 700 l 403 636 l 292 636 l 292 654 z "},"á":{"ha":778,"x_min":0,"x_max":694,"o":"m 0 340 l 583 340 l 583 450 l 0 450 l 0 561 l 694 561 l 694 0 l 0 0 l 0 340 m 111 111 l 583 111 l 583 229 l 111 229 l 111 111 m 403 635 l 292 635 l 292 699 l 496 844 l 668 844 l 403 653 l 403 635 z "},"â":{"ha":778,"x_min":0,"x_max":694,"o":"m 0 340 l 583 340 l 583 450 l 0 450 l 0 561 l 694 561 l 694 0 l 0 0 l 0 340 m 111 111 l 583 111 l 583 229 l 111 229 l 111 111 m 528 650 l 375 757 l 321 757 l 168 650 l 168 603 l 71 603 l 71 710 l 275 856 l 421 856 l 625 710 l 625 603 l 528 603 l 528 650 z "},"ã":{"ha":778,"x_min":0,"x_max":694,"o":"m 0 340 l 583 340 l 583 450 l 0 450 l 0 561 l 694 561 l 694 0 l 0 0 l 0 340 m 111 111 l 583 111 l 583 229 l 111 229 l 111 111 m 0 878 l 403 878 l 403 747 l 694 747 l 694 636 l 292 636 l 292 767 l 0 767 l 0 878 z "},"ä":{"ha":778,"x_min":0,"x_max":694,"o":"m 0 340 l 583 340 l 583 450 l 0 450 l 0 561 l 694 561 l 694 0 l 0 0 l 0 340 m 111 111 l 583 111 l 583 229 l 111 229 l 111 111 m 88 813 l 219 813 l 219 667 l 88 667 l 88 813 m 476 813 l 608 813 l 608 667 l 476 667 l 476 813 z "},"å":{"ha":778,"x_min":0,"x_max":694,"o":"m 457 860 l 457 638 l 235 638 l 235 860 l 457 860 m 318 721 l 374 721 l 374 776 l 318 776 l 318 721 m 0 340 l 583 340 l 583 450 l 0 450 l 0 561 l 694 561 l 694 0 l 0 0 l 0 340 m 111 111 l 583 111 l 583 229 l 111 229 l 111 111 z "},"°":{"ha":778,"x_min":207,"x_max":485,"o":"m 485 810 l 485 532 l 207 532 l 207 810 l 485 810 m 318 643 l 374 643 l 374 699 l 318 699 l 318 643 z "},"À":{"ha":778,"x_min":0,"x_max":694,"o":"m 583 450 l 111 450 l 111 0 l 0 0 l 0 813 l 694 813 l 694 0 l 583 0 l 583 450 m 111 561 l 583 561 l 583 701 l 111 701 l 111 561 m 292 903 l 26 1094 l 199 1094 l 403 949 l 403 885 l 292 885 l 292 903 z "},"Á":{"ha":778,"x_min":0,"x_max":694,"o":"m 583 450 l 111 450 l 111 0 l 0 0 l 0 813 l 694 813 l 694 0 l 583 0 l 583 450 m 111 561 l 583 561 l 583 701 l 111 701 l 111 561 m 403 885 l 292 885 l 292 949 l 496 1094 l 668 1094 l 403 903 l 403 885 z "},"Â":{"ha":778,"x_min":0,"x_max":694,"o":"m 583 450 l 111 450 l 111 0 l 0 0 l 0 813 l 694 813 l 694 0 l 583 0 l 583 450 m 111 561 l 583 561 l 583 701 l 111 701 l 111 561 m 528 907 l 375 1014 l 321 1014 l 168 907 l 168 860 l 71 860 l 71 967 l 275 1113 l 421 1113 l 625 967 l 625 860 l 528 860 l 528 907 z "},"Ã":{"ha":778,"x_min":0,"x_max":694,"o":"m 583 450 l 111 450 l 111 0 l 0 0 l 0 813 l 694 813 l 694 0 l 583 0 l 583 450 m 111 561 l 583 561 l 583 701 l 111 701 l 111 561 m 0 1129 l 403 1129 l 403 999 l 694 999 l 694 888 l 292 888 l 292 1018 l 0 1018 l 0 1129 z "},"Å":{"ha":778,"x_min":0,"x_max":694,"o":"m 457 1107 l 457 885 l 235 885 l 235 1107 l 457 1107 m 318 968 l 374 968 l 374 1024 l 318 1024 l 318 968 m 583 450 l 111 450 l 111 0 l 0 0 l 0 813 l 694 813 l 694 0 l 583 0 l 583 450 m 111 561 l 583 561 l 583 701 l 111 701 l 111 561 z "},"Ä":{"ha":778,"x_min":0,"x_max":694,"o":"m 583 450 l 111 450 l 111 0 l 0 0 l 0 813 l 694 813 l 694 0 l 583 0 l 583 450 m 111 561 l 583 561 l 583 701 l 111 701 l 111 561 m 88 1061 l 219 1061 l 219 915 l 88 915 l 88 1061 m 476 1061 l 608 1061 l 608 915 l 476 915 l 476 1061 z "},"Æ":{"ha":778,"x_min":0,"x_max":694,"o":"m 292 450 l 111 450 l 111 0 l 0 0 l 0 813 l 694 813 l 694 701 l 403 701 l 403 561 l 694 561 l 694 450 l 403 450 l 403 110 l 694 110 l 694 -1 l 319 -1 l 319 0 l 292 0 l 292 450 m 111 561 l 292 561 l 292 701 l 111 701 l 111 561 z "},"’":{"ha":778,"x_min":282,"x_max":415,"o":"m 282 813 l 415 813 l 415 565 l 346 565 l 346 667 l 282 667 l 282 813 z "},"‘":{"ha":778,"x_min":282,"x_max":415,"o":"m 415 565 l 282 565 l 282 813 l 351 813 l 351 711 l 415 711 l 415 565 z "},"Œ":{"ha":778,"x_min":0,"x_max":694,"o":"m 0 813 l 694 813 l 694 701 l 417 701 l 417 560 l 694 560 l 694 449 l 417 449 l 417 110 l 694 110 l 694 -1 l 0 -1 l 0 813 m 111 110 l 306 110 l 306 701 l 111 701 l 111 110 z "},"×":{"ha":778,"x_min":92,"x_max":629,"o":"m 629 583 l 433 386 l 629 190 l 557 118 l 361 314 l 164 118 l 92 190 l 288 386 l 92 583 l 164 656 l 361 460 l 557 656 l 629 583 z "},"æ":{"ha":778,"x_min":0,"x_max":694,"o":"m 0 336 l 292 336 l 292 450 l 0 450 l 0 561 l 694 561 l 694 225 l 403 225 l 403 111 l 694 111 l 694 0 l 0 0 l 0 336 m 111 111 l 292 111 l 292 225 l 111 225 l 111 111 m 583 450 l 403 450 l 403 336 l 583 336 l 583 450 z "},"a":{"ha":778,"x_min":0,"x_max":694,"o":"m 0 340 l 583 340 l 583 450 l 0 450 l 0 561 l 694 561 l 694 0 l 0 0 l 0 340 m 111 111 l 583 111 l 583 229 l 111 229 l 111 111 z "},"c":{"ha":778,"x_min":0,"x_max":694,"o":"m 0 561 l 694 561 l 694 450 l 111 450 l 111 111 l 694 111 l 694 0 l 0 0 l 0 561 z "},"–":{"ha":778,"x_min":42,"x_max":653,"o":"m 42 449 l 653 449 l 653 338 l 42 338 l 42 449 z "},"¯":{"ha":778,"x_min":0,"x_max":694,"o":"m 0 894 l 694 894 l 694 783 l 0 783 l 0 894 z "},"…":{"ha":778,"x_min":88,"x_max":608,"o":"m 282 146 l 414 146 l 414 0 l 282 0 l 282 146 m 476 146 l 608 146 l 608 0 l 476 0 l 476 146 m 88 146 l 219 146 l 219 0 l 88 0 l 88 146 z "},"„":{"ha":778,"x_min":199,"x_max":513,"o":"m 379 146 l 513 146 l 513 -97 l 443 -97 l 443 0 l 379 0 l 379 146 m 199 146 l 332 146 l 332 -97 l 263 -97 l 263 0 l 199 0 l 199 146 z "},"‚":{"ha":778,"x_min":292,"x_max":403,"o":"m 292 146 l 403 146 l 403 -97 l 347 -97 l 347 0 l 292 0 l 292 146 z "},"ý":{"ha":778,"x_min":0,"x_max":694,"o":"m 0 -139 l 583 -139 l 583 0 l 0 0 l 0 561 l 111 561 l 111 111 l 583 111 l 583 561 l 694 561 l 694 -250 l 0 -250 l 0 -139 m 403 635 l 292 635 l 292 699 l 496 844 l 668 844 l 403 653 l 403 635 z "},"ÿ":{"ha":778,"x_min":0,"x_max":694,"o":"m 0 -139 l 583 -139 l 583 0 l 0 0 l 0 561 l 111 561 l 111 111 l 583 111 l 583 561 l 694 561 l 694 -250 l 0 -250 l 0 -139 m 88 813 l 219 813 l 219 667 l 88 667 l 88 813 m 476 813 l 608 813 l 608 667 l 476 667 l 476 813 z "},"ñ":{"ha":778,"x_min":0,"x_max":694,"o":"m 583 450 l 111 450 l 111 0 l 0 0 l 0 561 l 694 561 l 694 0 l 583 0 l 583 450 m 0 843 l 403 843 l 403 713 l 694 713 l 694 601 l 292 601 l 292 732 l 0 732 l 0 843 z "},"¸":{"ha":778,"x_min":181,"x_max":403,"o":"m 403 -236 l 181 -236 l 181 -125 l 292 -125 l 292 0 l 403 0 l 403 -236 z "},"œ":{"ha":778,"x_min":0,"x_max":694,"o":"m 583 450 l 403 450 l 403 322 l 583 322 l 583 450 m 0 561 l 694 561 l 694 239 l 403 239 l 403 111 l 694 111 l 694 0 l 0 0 l 0 561 m 111 111 l 292 111 l 292 450 l 111 450 l 111 111 z "},"¿":{"ha":778,"x_min":0,"x_max":694,"o":"m 403 250 l 111 250 l 111 110 l 583 110 l 583 159 l 694 159 l 694 -1 l 0 -1 l 0 361 l 292 361 l 292 563 l 403 563 l 403 250 m 413 667 l 281 667 l 281 812 l 413 812 l 413 667 z "},"‹":{"ha":778,"x_min":210,"x_max":531,"o":"m 444 629 l 531 563 l 354 375 l 531 188 l 444 121 l 210 375 l 444 629 z "},"«":{"ha":778,"x_min":57,"x_max":614,"o":"m 292 629 l 378 563 l 201 375 l 378 188 l 292 121 l 57 375 l 292 629 m 528 629 l 614 563 l 438 375 l 614 188 l 528 121 l 293 375 l 528 629 z "},"Ð":{"ha":778,"x_min":0,"x_max":694,"o":"m 0 813 l 490 813 l 694 667 l 694 0 l 0 0 l 0 813 m 111 111 l 583 111 l 583 621 l 475 701 l 111 701 l 111 450 l 292 450 l 292 340 l 111 340 l 111 111 z "},"µ":{"ha":778,"x_min":0,"x_max":694,"o":"m 0 563 l 111 563 l 111 111 l 583 111 l 583 563 l 694 563 l 694 0 l 111 0 l 111 -247 l 0 -247 l 0 563 z "},"©":{"ha":778,"x_min":0,"x_max":694,"o":"m 0 813 l 694 813 l 694 0 l 0 0 l 0 813 m 111 111 l 583 111 l 583 688 l 111 688 l 111 111 m 194 603 l 486 603 l 486 492 l 306 492 l 306 306 l 486 306 l 486 194 l 194 194 l 194 603 z "},"®":{"ha":778,"x_min":0,"x_max":694,"o":"m 0 813 l 694 813 l 694 0 l 0 0 l 0 813 m 111 111 l 583 111 l 583 701 l 111 701 l 111 111 m 444 194 l 333 194 l 333 347 l 306 347 l 306 194 l 194 194 l 194 617 l 486 617 l 486 347 l 444 347 l 444 194 m 306 458 l 375 458 l 375 506 l 306 506 l 306 458 z "},"ª":{"ha":778,"x_min":125,"x_max":583,"o":"m 125 639 l 472 639 l 472 700 l 125 700 l 125 811 l 583 811 l 583 361 l 125 361 l 125 639 m 236 472 l 472 472 l 472 528 l 236 528 l 236 472 z "},"³":{"ha":778,"x_min":125,"x_max":583,"o":"m 125 649 l 472 649 l 472 700 l 125 700 l 125 811 l 583 811 l 583 361 l 125 361 l 125 472 l 472 472 l 472 538 l 125 538 l 125 649 z "},"²":{"ha":778,"x_min":125,"x_max":583,"o":"m 236 472 l 583 472 l 583 361 l 125 361 l 125 639 l 472 639 l 472 700 l 125 700 l 125 811 l 583 811 l 583 528 l 236 528 l 236 472 z "},"¹":{"ha":778,"x_min":125,"x_max":583,"o":"m 125 472 l 303 472 l 303 700 l 125 700 l 125 811 l 414 811 l 414 472 l 583 472 l 583 361 l 125 361 l 125 472 z "},"ƒ":{"ha":778,"x_min":0,"x_max":694,"o":"m 0 560 l 292 560 l 292 813 l 694 813 l 694 701 l 403 701 l 403 560 l 694 560 l 694 451 l 403 451 l 403 -250 l 0 -250 l 0 -139 l 292 -139 l 292 451 l 0 451 l 0 560 z "},"‰":{"ha":778,"x_min":0,"x_max":694,"o":"m 0 813 l 250 813 l 250 519 l 0 519 l 0 813 m 444 293 l 694 293 l 694 0 l 444 0 l 444 293 m 292 814 l 403 814 l 403 0 l 292 0 l 292 814 m 97 631 l 153 631 l 153 701 l 97 701 l 97 631 m 542 111 l 597 111 l 597 182 l 542 182 l 542 111 m 444 633 l 694 633 l 694 340 l 444 340 l 444 633 m 542 451 l 597 451 l 597 522 l 542 522 l 542 451 z "},"•":{"ha":778,"x_min":208,"x_max":486,"o":"m 486 514 l 486 236 l 208 236 l 208 514 l 486 514 z "},"—":{"ha":778,"x_min":0,"x_max":694,"o":"m 0 449 l 694 449 l 694 338 l 0 338 l 0 449 z "},"¢":{"ha":778,"x_min":0,"x_max":694,"o":"m 431 653 l 431 561 l 694 561 l 694 450 l 431 450 l 431 111 l 694 111 l 694 0 l 431 0 l 431 -97 l 319 -97 l 319 0 l 0 0 l 0 561 l 319 561 l 319 653 l 431 653 m 111 111 l 319 111 l 319 450 l 111 450 l 111 111 z "},"™":{"ha":778,"x_min":0,"x_max":694,"o":"m 444 700 l 389 700 l 389 403 l 278 403 l 278 811 l 694 811 l 694 403 l 583 403 l 583 700 l 528 700 l 528 403 l 444 403 l 444 700 m 69 700 l 0 700 l 0 811 l 250 811 l 250 700 l 181 700 l 181 403 l 69 403 l 69 700 z "},"¤":{"ha":778,"x_min":0,"x_max":694,"o":"m 389 694 l 389 611 l 611 611 l 611 389 l 694 389 l 694 306 l 611 306 l 611 83 l 389 83 l 389 0 l 306 0 l 306 83 l 83 83 l 83 306 l 0 306 l 0 389 l 83 389 l 83 611 l 306 611 l 306 694 l 389 694 m 194 194 l 500 194 l 500 500 l 194 500 l 194 194 z "},"§":{"ha":778,"x_min":139,"x_max":556,"o":"m 139 888 l 361 888 l 361 775 l 250 775 l 250 514 l 556 514 l 556 -278 l 333 -278 l 333 -165 l 444 -165 l 444 97 l 139 97 l 139 888 m 250 208 l 444 208 l 444 403 l 250 403 l 250 208 z "},"¬":{"ha":778,"x_min":0,"x_max":694,"o":"m 0 576 l 694 576 l 694 257 l 581 257 l 581 465 l 0 465 l 0 576 z "},"º":{"ha":778,"x_min":125,"x_max":583,"o":"m 125 811 l 583 811 l 583 361 l 125 361 l 125 811 m 222 714 l 222 458 l 486 458 l 486 714 l 222 714 z "},"¨":{"ha":778,"x_min":88,"x_max":608,"o":"m 88 813 l 219 813 l 219 667 l 88 667 l 88 813 m 476 813 l 608 813 l 608 667 l 476 667 l 476 813 z "},"´":{"ha":778,"x_min":292,"x_max":668,"o":"m 403 603 l 292 603 l 292 667 l 496 813 l 668 813 l 403 621 l 403 603 z "},"¼":{"ha":778,"x_min":42,"x_max":667,"o":"m 125 528 l 317 528 l 317 728 l 125 728 l 125 811 l 400 811 l 400 528 l 583 528 l 583 444 l 125 444 l 125 528 m 208 139 l 500 139 l 500 278 l 583 278 l 583 -89 l 500 -89 l 500 56 l 125 56 l 125 278 l 208 278 l 208 139 m 42 319 l 667 319 l 667 403 l 42 403 l 42 319 z "},"½":{"ha":778,"x_min":42,"x_max":667,"o":"m 125 528 l 317 528 l 317 728 l 125 728 l 125 811 l 400 811 l 400 528 l 583 528 l 583 444 l 125 444 l 125 528 m 208 50 l 583 50 l 583 278 l 125 278 l 125 194 l 500 194 l 500 133 l 125 133 l 125 -89 l 583 -89 l 583 -6 l 208 -6 l 208 50 m 42 319 l 667 319 l 667 403 l 42 403 l 42 319 z "},"¾":{"ha":778,"x_min":42,"x_max":667,"o":"m 208 139 l 500 139 l 500 278 l 583 278 l 583 -89 l 500 -89 l 500 56 l 125 56 l 125 278 l 208 278 l 208 139 m 42 403 l 667 403 l 667 319 l 42 319 l 42 403 m 125 669 l 500 669 l 500 728 l 125 728 l 125 811 l 583 811 l 583 444 l 125 444 l 125 528 l 500 528 l 500 586 l 125 586 l 125 669 z "},"÷":{"ha":778,"x_min":28,"x_max":667,"o":"m 28 417 l 667 417 l 667 333 l 28 333 l 28 417 m 444 722 l 444 528 l 250 528 l 250 722 l 444 722 m 444 222 l 444 28 l 250 28 l 250 222 l 444 222 z "},"o":{"ha":778,"x_min":0,"x_max":694,"o":"m 0 561 l 694 561 l 694 0 l 0 0 l 0 561 m 111 111 l 583 111 l 583 450 l 111 450 l 111 111 z "},"Ø":{"ha":778,"x_min":0,"x_max":694,"o":"m 0 813 l 292 813 l 292 872 l 403 872 l 403 813 l 694 813 l 694 0 l 403 0 l 403 -61 l 292 -61 l 292 0 l 0 0 l 0 813 m 583 111 l 583 701 l 403 701 l 403 111 l 583 111 m 111 111 l 292 111 l 292 701 l 111 701 l 111 111 z "},"h":{"ha":778,"x_min":0,"x_max":694,"o":"m 583 450 l 111 450 l 111 0 l 0 0 l 0 813 l 111 813 l 111 561 l 694 561 l 694 0 l 583 0 l 583 450 z "},"f":{"ha":778,"x_min":0,"x_max":694,"o":"m 0 561 l 292 561 l 292 813 l 694 813 l 694 701 l 403 701 l 403 561 l 694 561 l 694 450 l 403 450 l 403 0 l 292 0 l 292 450 l 0 450 l 0 561 z "},"g":{"ha":778,"x_min":0,"x_max":694,"o":"m 0 561 l 694 561 l 694 -250 l 0 -250 l 0 -139 l 583 -139 l 583 0 l 0 0 l 0 561 m 111 111 l 583 111 l 583 450 l 111 450 l 111 111 z "},"]":{"ha":778,"x_min":181,"x_max":583,"o":"m 583 813 l 181 813 l 181 701 l 472 701 l 472 111 l 181 111 l 181 0 l 583 0 l 583 813 z "},"/":{"ha":778,"x_min":96,"x_max":599,"o":"m 599 663 l 196 46 l 96 101 l 499 718 l 599 663 z "},"d":{"ha":778,"x_min":0,"x_max":694,"o":"m 694 0 l 0 0 l 0 561 l 583 561 l 583 811 l 694 811 l 694 0 m 583 450 l 111 450 l 111 111 l 583 111 l 583 450 z "},"q":{"ha":778,"x_min":0,"x_max":694,"o":"m 694 -250 l 583 -250 l 583 0 l 0 0 l 0 561 l 694 561 l 694 -250 m 583 450 l 111 450 l 111 111 l 583 111 l 583 450 z "},"}":{"ha":778,"x_min":179,"x_max":625,"o":"m 625 351 l 554 351 l 554 174 l 336 0 l 179 0 l 179 111 l 294 111 l 443 232 l 443 581 l 294 703 l 179 703 l 179 814 l 336 814 l 553 642 l 554 642 l 554 450 l 625 450 l 625 351 z "},"ˆ":{"ha":778,"x_min":71,"x_max":625,"o":"m 528 608 l 375 715 l 321 715 l 168 608 l 168 561 l 71 561 l 71 668 l 275 814 l 421 814 l 625 668 l 625 561 l 528 561 l 528 608 z "},"›":{"ha":778,"x_min":208,"x_max":529,"o":"m 529 375 l 294 121 l 208 188 l 385 375 l 208 563 l 294 629 l 529 375 z "},"»":{"ha":778,"x_min":57,"x_max":614,"o":"m 379 629 l 293 563 l 470 375 l 293 188 l 379 121 l 614 375 l 379 629 m 143 629 l 57 563 l 233 375 l 57 188 l 143 121 l 378 375 l 143 629 z "},"È":{"ha":778,"x_min":0,"x_max":694,"o":"m 292 906 l 26 1097 l 199 1097 l 403 951 l 403 888 l 292 888 l 292 906 m 0 813 l 694 813 l 694 701 l 111 701 l 111 561 l 694 561 l 694 450 l 111 450 l 111 111 l 694 111 l 694 0 l 0 0 l 0 813 z "},"É":{"ha":778,"x_min":0,"x_max":694,"o":"m 403 885 l 292 885 l 292 949 l 496 1094 l 668 1094 l 403 903 l 403 885 m 0 813 l 694 813 l 694 701 l 111 701 l 111 561 l 694 561 l 694 450 l 111 450 l 111 111 l 694 111 l 694 0 l 0 0 l 0 813 z "},"Ê":{"ha":778,"x_min":0,"x_max":694,"o":"m 528 933 l 375 1040 l 321 1040 l 168 933 l 168 886 l 71 886 l 71 993 l 275 1139 l 421 1139 l 625 993 l 625 886 l 528 886 l 528 933 m 0 813 l 694 813 l 694 701 l 111 701 l 111 561 l 694 561 l 694 450 l 111 450 l 111 111 l 694 111 l 694 0 l 0 0 l 0 813 z "},"Ë":{"ha":778,"x_min":0,"x_max":694,"o":"m 88 1058 l 219 1058 l 219 913 l 88 913 l 88 1058 m 476 1058 l 608 1058 l 608 913 l 476 913 l 476 1058 m 0 813 l 694 813 l 694 701 l 111 701 l 111 561 l 694 561 l 694 450 l 111 450 l 111 111 l 694 111 l 694 0 l 0 0 l 0 813 z "},"Ì":{"ha":778,"x_min":0,"x_max":694,"o":"m 292 903 l 26 1094 l 199 1094 l 403 949 l 403 885 l 292 885 l 292 903 m 0 813 l 694 813 l 694 701 l 403 701 l 403 111 l 694 111 l 694 0 l 0 0 l 0 111 l 292 111 l 292 701 l 0 701 l 0 813 z "},"Í":{"ha":778,"x_min":0,"x_max":694,"o":"m 403 886 l 292 886 l 292 950 l 496 1096 l 668 1096 l 403 904 l 403 886 m 0 813 l 694 813 l 694 701 l 403 701 l 403 111 l 694 111 l 694 0 l 0 0 l 0 111 l 292 111 l 292 701 l 0 701 l 0 813 z "},"Î":{"ha":778,"x_min":0,"x_max":694,"o":"m 528 906 l 375 1013 l 321 1013 l 168 906 l 168 858 l 71 858 l 71 965 l 275 1111 l 421 1111 l 625 965 l 625 858 l 528 858 l 528 906 m 0 813 l 694 813 l 694 701 l 403 701 l 403 111 l 694 111 l 694 0 l 0 0 l 0 111 l 292 111 l 292 701 l 0 701 l 0 813 z "},"Ï":{"ha":778,"x_min":0,"x_max":694,"o":"m 88 1058 l 219 1058 l 219 913 l 88 913 l 88 1058 m 476 1058 l 608 1058 l 608 913 l 476 913 l 476 1058 m 0 813 l 694 813 l 694 701 l 403 701 l 403 111 l 694 111 l 694 0 l 0 0 l 0 111 l 292 111 l 292 701 l 0 701 l 0 813 z "},"Ñ":{"ha":778,"x_min":0,"x_max":694,"o":"m 0 1129 l 403 1129 l 403 999 l 694 999 l 694 888 l 292 888 l 292 1018 l 0 1018 l 0 1129 m 583 701 l 111 701 l 111 0 l 0 0 l 0 813 l 694 813 l 694 0 l 583 0 l 583 701 z "},"Ò":{"ha":778,"x_min":0,"x_max":694,"o":"m 292 903 l 26 1094 l 199 1094 l 403 949 l 403 885 l 292 885 l 292 903 m 0 813 l 694 813 l 694 0 l 0 0 l 0 813 m 111 111 l 583 111 l 583 701 l 111 701 l 111 111 z "},"Ó":{"ha":778,"x_min":0,"x_max":694,"o":"m 403 888 l 292 888 l 292 951 l 496 1097 l 668 1097 l 403 906 l 403 888 m 0 813 l 694 813 l 694 0 l 0 0 l 0 813 m 111 111 l 583 111 l 583 701 l 111 701 l 111 111 z "},"Ô":{"ha":778,"x_min":0,"x_max":694,"o":"m 528 933 l 375 1040 l 321 1040 l 168 933 l 168 886 l 71 886 l 71 993 l 275 1139 l 421 1139 l 625 993 l 625 886 l 528 886 l 528 933 m 0 813 l 694 813 l 694 0 l 0 0 l 0 813 m 111 111 l 583 111 l 583 701 l 111 701 l 111 111 z "},"Õ":{"ha":778,"x_min":0,"x_max":694,"o":"m 0 1129 l 403 1129 l 403 999 l 694 999 l 694 888 l 292 888 l 292 1018 l 0 1018 l 0 1129 m 0 813 l 694 813 l 694 0 l 0 0 l 0 813 m 111 111 l 583 111 l 583 701 l 111 701 l 111 111 z "},"Ö":{"ha":778,"x_min":0,"x_max":694,"o":"m 88 1060 l 219 1060 l 219 914 l 88 914 l 88 1060 m 476 1060 l 608 1060 l 608 914 l 476 914 l 476 1060 m 0 813 l 694 813 l 694 0 l 0 0 l 0 813 m 111 111 l 583 111 l 583 701 l 111 701 l 111 111 z "},"Ù":{"ha":778,"x_min":0,"x_max":694,"o":"m 292 906 l 26 1097 l 199 1097 l 403 951 l 403 888 l 292 888 l 292 906 m 0 813 l 111 813 l 111 111 l 583 111 l 583 813 l 694 813 l 694 0 l 0 0 l 0 813 z "},"Ú":{"ha":778,"x_min":0,"x_max":694,"o":"m 403 885 l 292 885 l 292 949 l 496 1094 l 668 1094 l 403 903 l 403 885 m 0 813 l 111 813 l 111 111 l 583 111 l 583 813 l 694 813 l 694 0 l 0 0 l 0 813 z "},"Û":{"ha":778,"x_min":0,"x_max":694,"o":"m 528 906 l 375 1013 l 321 1013 l 168 906 l 168 858 l 71 858 l 71 965 l 275 1111 l 421 1111 l 625 965 l 625 858 l 528 858 l 528 906 m 0 813 l 111 813 l 111 111 l 583 111 l 583 813 l 694 813 l 694 0 l 0 0 l 0 813 z "},"Ü":{"ha":778,"x_min":0,"x_max":694,"o":"m 88 1060 l 219 1060 l 219 914 l 88 914 l 88 1060 m 476 1060 l 608 1060 l 608 914 l 476 914 l 476 1060 m 0 813 l 111 813 l 111 111 l 583 111 l 583 813 l 694 813 l 694 0 l 0 0 l 0 813 z "},"Ý":{"ha":778,"x_min":0,"x_max":694,"o":"m 403 886 l 292 886 l 292 950 l 496 1096 l 668 1096 l 403 904 l 403 886 m 0 813 l 111 813 l 111 561 l 583 561 l 583 813 l 694 813 l 694 450 l 403 450 l 403 0 l 292 0 l 292 450 l 0 450 l 0 813 z "},"ø":{"ha":778,"x_min":0,"x_max":694,"o":"m 0 561 l 292 561 l 292 619 l 403 619 l 403 561 l 694 561 l 694 0 l 403 0 l 403 -61 l 292 -61 l 292 0 l 0 0 l 0 561 m 583 111 l 583 450 l 403 450 l 403 111 l 583 111 m 111 111 l 292 111 l 292 450 l 111 450 l 111 111 z "},"¡":{"ha":778,"x_min":282,"x_max":414,"o":"m 292 561 l 403 561 l 403 0 l 292 0 l 292 561 m 282 813 l 414 813 l 414 667 l 282 667 l 282 813 z "},"Ÿ":{"ha":778,"x_min":0,"x_max":694,"o":"m 88 985 l 219 985 l 219 839 l 88 839 l 88 985 m 476 985 l 608 985 l 608 839 l 476 839 l 476 985 m 0 813 l 111 813 l 111 561 l 583 561 l 583 813 l 694 813 l 694 450 l 403 450 l 403 0 l 292 0 l 292 450 l 0 450 l 0 813 z "},"k":{"ha":778,"x_min":0,"x_max":694,"o":"m 583 229 l 111 229 l 111 0 l 0 0 l 0 701 l 111 701 l 111 340 l 472 340 l 472 561 l 583 561 l 583 340 l 694 340 l 694 0 l 583 0 l 583 229 z "},"i":{"ha":778,"x_min":0,"x_max":694,"o":"m 282 813 l 414 813 l 414 667 l 282 667 l 282 813 m 111 563 l 403 563 l 403 111 l 694 111 l 694 0 l 0 0 l 0 111 l 292 111 l 292 450 l 111 450 l 111 563 z "},"j":{"ha":778,"x_min":0,"x_max":694,"o":"m 0 561 l 694 561 l 694 450 l 403 450 l 403 -250 l 0 -250 l 0 -139 l 292 -139 l 292 450 l 0 450 l 0 561 z "}," ":{"ha":778,"x_min":0,"x_max":0,"o":""},"·":{"ha":778,"x_min":236,"x_max":458,"o":"m 458 486 l 458 264 l 236 264 l 236 486 l 458 486 z "},"ﬁ":{"ha":778,"x_min":0,"x_max":750,"o":"m 0 561 l 139 561 l 139 814 l 417 814 l 417 703 l 250 703 l 250 561 l 625 561 l 625 97 l 750 97 l 750 0 l 389 0 l 389 97 l 514 97 l 514 450 l 250 450 l 250 0 l 139 0 l 139 450 l 0 450 l 0 561 m 518 813 l 622 813 l 622 667 l 518 667 l 518 813 z "},"ﬂ":{"ha":778,"x_min":0,"x_max":750,"o":"m 0 561 l 125 561 l 125 814 l 625 814 l 625 111 l 750 111 l 750 0 l 389 0 l 389 111 l 514 111 l 514 703 l 236 703 l 236 561 l 375 561 l 375 450 l 236 450 l 236 0 l 125 0 l 125 450 l 0 450 l 0 561 z "},"l":{"ha":778,"x_min":0,"x_max":694,"o":"m 0 813 l 403 813 l 403 111 l 694 111 l 694 0 l 0 0 l 0 111 l 292 111 l 292 701 l 0 701 l 0 813 z "},"m":{"ha":778,"x_min":0,"x_max":694,"o":"m 292 450 l 111 450 l 111 0 l 0 0 l 0 561 l 694 561 l 694 0 l 583 0 l 583 450 l 403 450 l 403 0 l 292 0 l 292 450 z "},"í":{"ha":778,"x_min":0,"x_max":694,"o":"m 111 563 l 403 563 l 403 111 l 694 111 l 694 0 l 0 0 l 0 111 l 292 111 l 292 450 l 111 450 l 111 563 m 403 636 l 292 636 l 292 700 l 496 846 l 668 846 l 403 654 l 403 636 z "},"ˇ":{"ha":628,"x_min":36,"x_max":590,"o":"m 479 1083 l 590 1083 l 590 1004 l 442 860 l 185 860 l 36 1004 l 36 1083 l 147 1083 l 147 1050 l 231 972 l 396 972 l 479 1050 l 479 1083 z "},"Ž":{"ha":778,"x_min":0,"x_max":694,"o":"m 0 269 l 517 701 l 0 701 l 0 813 l 694 813 l 694 701 l 111 219 l 111 111 l 694 111 l 694 0 l 0 0 l 0 269 m 513 1083 l 624 1083 l 624 1004 l 475 860 l 218 860 l 69 1004 l 69 1083 l 181 1083 l 181 1050 l 264 972 l 429 972 l 513 1050 l 513 1083 z "},"Ť":{"ha":778,"x_min":0,"x_max":694,"o":"m 0 813 l 694 813 l 694 701 l 403 701 l 403 0 l 292 0 l 292 701 l 0 701 l 0 813 m 513 1083 l 624 1083 l 624 1004 l 475 860 l 218 860 l 69 1004 l 69 1083 l 181 1083 l 181 1050 l 264 972 l 429 972 l 513 1050 l 513 1083 z "},"Š":{"ha":778,"x_min":0,"x_max":694,"o":"m 0 813 l 694 813 l 694 701 l 111 701 l 111 561 l 694 561 l 694 0 l 0 0 l 0 111 l 583 111 l 583 450 l 0 450 l 0 813 m 517 1083 l 628 1083 l 628 1004 l 479 860 l 222 860 l 74 1004 l 74 1083 l 185 1083 l 185 1050 l 268 972 l 433 972 l 517 1050 l 517 1083 z "},"š":{"ha":778,"x_min":0,"x_max":694,"o":"m 0 561 l 694 561 l 694 450 l 111 450 l 111 340 l 694 340 l 694 0 l 0 0 l 0 111 l 583 111 l 583 229 l 0 229 l 0 561 m 513 829 l 624 829 l 624 750 l 475 606 l 218 606 l 69 750 l 69 829 l 181 829 l 181 796 l 264 718 l 429 718 l 513 796 l 513 829 z "},"Č":{"ha":778,"x_min":0,"x_max":694,"o":"m 0 813 l 694 813 l 694 701 l 111 701 l 111 111 l 694 111 l 694 0 l 0 0 l 0 813 m 513 1083 l 624 1083 l 624 1004 l 475 860 l 218 860 l 69 1004 l 69 1083 l 181 1083 l 181 1050 l 264 972 l 429 972 l 513 1050 l 513 1083 z "},"Ň":{"ha":778,"x_min":0,"x_max":694,"o":"m 583 701 l 111 701 l 111 0 l 0 0 l 0 813 l 694 813 l 694 0 l 583 0 l 583 701 m 513 1083 l 624 1083 l 624 1004 l 475 860 l 218 860 l 69 1004 l 69 1083 l 181 1083 l 181 1050 l 264 972 l 429 972 l 513 1050 l 513 1083 z "},"ň":{"ha":778,"x_min":0,"x_max":694,"o":"m 583 450 l 111 450 l 111 0 l 0 0 l 0 561 l 694 561 l 694 0 l 583 0 l 583 450 m 513 829 l 624 829 l 624 750 l 475 606 l 218 606 l 69 750 l 69 829 l 181 829 l 181 796 l 264 718 l 429 718 l 513 796 l 513 829 z "},"ń":{"ha":778,"x_min":0,"x_max":694,"o":"m 583 450 l 111 450 l 111 0 l 0 0 l 0 561 l 694 561 l 694 0 l 583 0 l 583 450 m 400 636 l 289 636 l 289 700 l 493 846 l 665 846 l 400 654 l 400 636 z "},"Ń":{"ha":778,"x_min":0,"x_max":694,"o":"m 583 701 l 111 701 l 111 0 l 0 0 l 0 813 l 694 813 l 694 0 l 583 0 l 583 701 m 396 886 l 285 886 l 285 950 l 489 1096 l 661 1096 l 396 904 l 396 886 z "},"Ď":{"ha":778,"x_min":0,"x_max":694,"o":"m 0 813 l 490 813 l 694 667 l 694 0 l 0 0 l 0 813 m 111 111 l 583 111 l 583 621 l 475 701 l 111 701 l 111 111 m 517 1110 l 628 1110 l 628 1031 l 479 886 l 222 886 l 74 1031 l 74 1110 l 185 1110 l 185 1076 l 268 999 l 433 999 l 517 1076 l 517 1110 z "},"Ě":{"ha":778,"x_min":0,"x_max":694,"o":"m 0 813 l 694 813 l 694 701 l 111 701 l 111 561 l 694 561 l 694 450 l 111 450 l 111 111 l 694 111 l 694 0 l 0 0 l 0 813 m 513 1083 l 624 1083 l 624 1004 l 475 860 l 218 860 l 69 1004 l 69 1083 l 181 1083 l 181 1050 l 264 972 l 429 972 l 513 1050 l 513 1083 z "},"č":{"ha":778,"x_min":0,"x_max":694,"o":"m 0 561 l 694 561 l 694 450 l 111 450 l 111 111 l 694 111 l 694 0 l 0 0 l 0 561 m 513 829 l 624 829 l 624 750 l 475 606 l 218 606 l 69 750 l 69 829 l 181 829 l 181 796 l 264 718 l 429 718 l 513 796 l 513 829 z "},"ě":{"ha":778,"x_min":0,"x_max":694,"o":"m 694 0 l 0 0 l 0 561 l 694 561 l 694 229 l 111 229 l 111 111 l 694 111 l 694 0 m 111 340 l 583 340 l 583 450 l 111 450 l 111 340 m 513 829 l 624 829 l 624 750 l 475 606 l 218 606 l 69 750 l 69 829 l 181 829 l 181 796 l 264 718 l 429 718 l 513 796 l 513 829 z "},"ź":{"ha":778,"x_min":0,"x_max":694,"o":"m 694 0 l 0 0 l 0 111 l 508 450 l 0 450 l 0 561 l 694 561 l 694 450 l 188 111 l 694 111 l 694 0 m 406 636 l 294 636 l 294 700 l 499 846 l 671 846 l 406 654 l 406 636 z "},"ž":{"ha":778,"x_min":0,"x_max":694,"o":"m 694 0 l 0 0 l 0 111 l 508 450 l 0 450 l 0 561 l 694 561 l 694 450 l 188 111 l 694 111 l 694 0 m 515 826 l 626 826 l 626 747 l 478 603 l 221 603 l 72 747 l 72 826 l 183 826 l 183 793 l 267 715 l 432 715 l 515 793 l 515 826 z "},"˛":{"ha":296,"x_min":51,"x_max":271,"o":"m 51 0 l 163 0 l 163 -128 l 271 -128 l 271 -239 l 51 -239 l 51 0 z "},"ę":{"ha":778,"x_min":0,"x_max":694,"o":"m 694 0 l 0 0 l 0 561 l 694 561 l 694 229 l 111 229 l 111 111 l 694 111 l 694 0 m 111 340 l 583 340 l 583 450 l 111 450 l 111 340 m 278 0 l 389 0 l 389 -128 l 497 -128 l 497 -239 l 278 -239 l 278 0 z "},"ç":{"ha":778,"x_min":0,"x_max":694,"o":"m 0 561 l 694 561 l 694 450 l 111 450 l 111 111 l 694 111 l 694 0 l 0 0 l 0 561 m 403 -236 l 181 -236 l 181 -125 l 292 -125 l 292 0 l 403 0 l 403 -236 z "},"Ç":{"ha":778,"x_min":0,"x_max":694,"o":"m 0 813 l 694 813 l 694 701 l 111 701 l 111 111 l 694 111 l 694 0 l 0 0 l 0 813 m 403 -236 l 181 -236 l 181 -125 l 292 -125 l 292 0 l 403 0 l 403 -236 z "},"Ę":{"ha":778,"x_min":0,"x_max":694,"o":"m 0 813 l 694 813 l 694 701 l 111 701 l 111 561 l 694 561 l 694 450 l 111 450 l 111 111 l 694 111 l 694 0 l 0 0 l 0 813 m 283 0 l 394 0 l 394 -128 l 503 -128 l 503 -239 l 283 -239 l 283 0 z "},"ą":{"ha":778,"x_min":0,"x_max":694,"o":"m 0 340 l 583 340 l 583 450 l 0 450 l 0 561 l 694 561 l 694 0 l 0 0 l 0 340 m 111 111 l 583 111 l 583 229 l 111 229 l 111 111 m 293 0 l 404 0 l 404 -128 l 513 -128 l 513 -239 l 293 -239 l 293 0 z "},"Ř":{"ha":778,"x_min":0,"x_max":694,"o":"m 472 450 l 111 450 l 111 0 l 0 0 l 0 813 l 694 813 l 694 450 l 583 450 l 583 0 l 472 0 l 472 450 m 111 561 l 583 561 l 583 701 l 111 701 l 111 561 m 519 1083 l 631 1083 l 631 1004 l 482 860 l 225 860 l 76 1004 l 76 1083 l 188 1083 l 188 1050 l 271 972 l 436 972 l 519 1050 l 519 1083 z "},"Ć":{"ha":778,"x_min":0,"x_max":694,"o":"m 0 813 l 694 813 l 694 701 l 111 701 l 111 111 l 694 111 l 694 0 l 0 0 l 0 813 m 410 886 l 299 886 l 299 950 l 503 1096 l 675 1096 l 410 904 l 410 886 z "},"ć":{"ha":778,"x_min":0,"x_max":694,"o":"m 0 561 l 694 561 l 694 450 l 111 450 l 111 111 l 694 111 l 694 0 l 0 0 l 0 561 m 410 636 l 299 636 l 299 700 l 503 846 l 675 846 l 410 654 l 410 636 z "},"Ś":{"ha":778,"x_min":0,"x_max":694,"o":"m 0 813 l 694 813 l 694 701 l 111 701 l 111 561 l 694 561 l 694 0 l 0 0 l 0 111 l 583 111 l 583 450 l 0 450 l 0 813 m 410 888 l 299 888 l 299 951 l 503 1097 l 675 1097 l 410 906 l 410 888 z "},"Ź":{"ha":778,"x_min":0,"x_max":694,"o":"m 0 269 l 517 701 l 0 701 l 0 813 l 694 813 l 694 701 l 111 219 l 111 111 l 694 111 l 694 0 l 0 0 l 0 269 m 410 886 l 299 886 l 299 950 l 503 1096 l 675 1096 l 410 904 l 410 886 z "}}}
